<?xml version="1.0" encoding="UTF-8"?>
<svg width="260px" height="22px" viewBox="0 0 260 22" version="1.1" xmlns="http://www.w3.org/2000/svg" xmlns:xlink="http://www.w3.org/1999/xlink">
    <!-- Generator: Sketch 63.1 (92452) - https://sketch.com -->
    <title>Group</title>
    <desc>Created with Sketch.</desc>
    <g id="Page-1" stroke="none" stroke-width="1" fill="none" fill-rule="evenodd">
        <g id="Home" transform="translate(-613.000000, -844.000000)" fill="#000000" fill-rule="nonzero">
            <g id="Group" transform="translate(613.000000, 844.000000)">
                <path d="M13,2.6 C13,0.7 11.1,0.1 9.6,0.2 L9.6,0.6 C10.5,0.7 11.2,0.9 11.2,1.4 C11.2,1.8 11,2.2 10.2,2.2 C9.5,2.2 8.2,1.8 7.2,1.5 C6,1.1 4.7,0.7 3.8,0.7 C2,0.7 0.6,1.9 0.6,3.5 C0.6,4.9 1.5,5.5 2,5.7 L2.2,5.4 C1.9,5.2 1.7,5 1.7,4.5 C1.7,4.1 2.1,3.5 2.9,3.5 C3.4,3.5 3.8,3.6 4.4,3.7 C5,3.8 5.6,4 6.4,4.2 C7.6,4.6 8.7,4.9 9.7,5 L9.7,7.6 L8.4,8.7 L8.4,9 L9.7,10.1 L9.7,13.8 C9,14.2 8.3,14.3 7.5,14.3 C6.2,14.2 4.9,14 4,13 L7.7,11.2 L7.7,5.1 L3,7.1 C3.5,6.1 4.2,5.2 5.2,4.6 L5,4.3 C2.4,5 0,7.3 0,10.4 C0,14 3,16.6 6.6,16.6 C10.5,16.6 12.8,13.8 12.8,10.7 L12.4,10.7 C11.8,11.8 11.1,12.9 10.1,13.4 L10.1,9.9 L11.5,8.8 L11.5,8.7 L10.1,7.6 L10.1,4.9 C11.5,5.1 13,4.3 13,2.6 M4.9,12.2 L3.7,12.8 C3,12 2.7,10.8 2.7,9.4 C2.7,8.8 2.7,8.2 2.9,7.8 L5,6.8 L4.9,12.2 Z M23.3,7.4 L22.5,8 L20.1,6 L17.5,7.9 L17.5,0.7 L17.1,0.7 L13.7,3.1 L13.7,3.4 C14.2,3.6 14.7,3.7 14.7,4.5 L14.7,14 L13.3,14.9 L13.6,15.3 L14.4,14.8 L16.6,16.7 L19.2,14.9 L18.9,14.5 L18.3,15 L17.5,14.2 L17.5,8.2 L18.4,7.6 L19.9,9 L19.9,14 C19.9,17.3 19,18 17.6,18.5 L17.6,19 C20.3,19.1 22.6,18.1 22.6,13.8 L22.6,8.3 L23.5,7.6 L23.3,7.4 L23.3,7.4 Z M32,12.9 L29.7,14.7 L27.2,13 L27.2,12.1 L31.7,9.3 L31.7,9.2 L29.6,6 L24.6,8.6 L24.6,14.2 L23.6,14.9 L23.9,15.3 L24.9,14.6 L28,16.9 L32.3,13.4 L32,12.9 L32,12.9 Z M27.2,11.6 L27.2,7.7 L27.6,7.6 L29.4,10.2 L27.2,11.6 L27.2,11.6 Z M49.7,1.9 C49.7,1.6 49.6,1.2 49.5,0.9 L49.2,0.9 C48.9,1.7 48.6,2 47.9,2 C47.1,2 46.7,1.5 46.3,1.1 L45.9,1.1 L43.3,4.1 L43.6,4.4 L44.4,3.5 C44.7,3.7 44.9,3.9 45.3,4.1 C45.6,4.3 46.1,4.4 46.5,4.4 L46.5,11.3 L41.3,2.6 C40.9,2 40.3,0.9 38.9,0.9 C37.3,0.9 36.1,2.1 36.3,4.2 L36.7,4.3 C36.8,3.7 37.1,3.2 37.6,3.2 C38.1,3.2 38.4,3.5 38.6,3.9 L38.6,6.7 C37,6.7 36,7.6 36,8.9 C36,9.6 36.4,10.7 37.5,10.9 L37.6,10.6 C37.4,10.4 37.3,10.3 37.3,10.1 C37.3,9.7 37.8,9.4 38.3,9.4 L38.6,9.4 L38.6,12.9 C36.8,12.9 35.4,13.9 35.4,15.7 C35.4,17.5 36.9,18.4 38.5,18.3 L38.6,17.9 C37.6,17.8 37.2,17.3 37.2,16.8 C37.2,16.1 37.7,15.8 38.3,15.8 C39,15.8 39.5,16.2 40,16.7 L42.7,13.7 L42.4,13.4 L41.7,14.2 C40.9,13.5 40.1,13 39.1,12.9 L39.1,4.5 L46.3,16.7 L47.1,16.7 L47.1,4.4 C48.4,4.5 49.7,3.6 49.7,1.9 M56.4,12.9 L54.1,14.7 L51.6,13 L51.6,12.1 L56.1,9.3 L56.1,9.2 L54,6 L49,8.6 L49,14.2 L48,14.9 L48.3,15.3 L49.3,14.6 L52.4,16.9 L56.7,13.4 L56.4,12.9 L56.4,12.9 Z M51.6,11.6 L51.6,7.7 L52,7.6 L53.8,10.2 L51.6,11.6 L51.6,11.6 Z M71.9,7.1 L71.1,7.6 L69.2,6 L67.2,7.8 L68.1,8.6 L68.1,14.8 L67.7,15 L65.8,13.9 L65.8,8.5 L66.7,7.9 L64.5,6 L62.3,7.8 L63.2,8.6 L63.2,14.8 L62.9,14.9 L60.9,13.5 L60.9,8.6 C60.9,7.4 60.3,7 59.6,6.5 C58.9,6.1 58.7,5.7 58.7,5.1 C58.7,4.4 59.4,4.2 59.6,4.2 L59.5,3.8 C58.5,3.8 56.8,4.7 56.8,6.3 C56.8,7.2 57.2,7.5 57.7,8 C58.2,8.4 58.6,8.9 58.6,9.6 L58.6,14.4 L57.6,15.2 L57.9,15.6 L58.8,15 L61.4,17 L63.7,15.5 L66.2,17 L71,14 L71,8.3 L72.2,7.4 L71.9,7.1 L71.9,7.1 Z M88.8,2.5 L88,3.1 L85.8,1.2 L82.9,3.6 L82.9,1.4 L82.4,1.4 L82.4,15.6 C82.1,15.6 81.6,15.4 81,15.3 L81,3.4 C81,2.5 80.3,1.3 78.7,1.3 C76.9,1.3 75.8,2.7 75.8,3.9 L76.3,3.9 C76.4,3.3 76.8,2.9 77.2,2.9 C77.8,2.9 78.1,3.2 78.1,4.4 L78.1,7.7 C76.6,7.8 75.5,8.7 75.5,10 C75.5,10.9 75.9,11.7 76.9,11.9 L77,11.5 C76.6,11.3 76.5,11.1 76.5,10.9 C76.5,10.4 77,10.2 77.6,10.2 L78,10.2 L78,15.6 C76.7,16.1 76.1,17 76.1,18.2 C76.1,19.7 77.3,20.8 79.1,20.8 C80.3,20.8 81.4,20.6 82.5,20.3 C83.4,20.1 84.8,19.9 85.3,19.9 C86,19.9 86.3,20.2 86.3,20.7 C86.3,21.3 86,21.5 85.6,21.6 L85.7,22 C87.2,21.7 88.1,20.8 88.1,19.4 C88.1,18 86.8,17.3 85.3,17.3 C84.5,17.3 82.8,17.5 81.7,17.8 C80.5,18.1 79.2,18.2 78.9,18.2 C78.2,18.2 77.5,17.8 77.5,17 C77.5,16.2 78.3,15.6 79.8,15.6 C80.7,15.6 81.5,15.8 82.5,16 C83.5,16.2 84.4,16.5 85.4,16.5 C86.7,16.5 88,16 88,14.1 L88,3.6 L88.9,2.8 L88.8,2.5 L88.8,2.5 Z M85.1,7.5 C84.8,7.8 84.5,8 84,8 C83.4,8 83.1,7.8 82.9,7.5 L82.9,4 L83.8,3.3 L85.1,4.3 L85.1,7.5 L85.1,7.5 Z M85.1,10.2 C84.8,10 84.6,9.8 84,9.8 C83.4,9.8 83.1,10 82.9,10.2 L82.9,8.1 C83,8.3 83.4,8.5 84,8.5 C84.5,8.5 84.9,8.3 85.1,8.1 L85.1,10.2 Z M85.1,14 C85.1,14.8 84.6,15.6 83.7,15.6 C83.5,15.6 83,15.6 82.8,15.5 L82.8,10.6 C83,10.4 83.4,10.2 83.9,10.2 C84.4,10.2 84.8,10.4 85,10.6 L85,14 L85.1,14 Z M97.7,8.2 L94.7,5.9 L90,8.6 L90,14.1 L89,14.8 L89.3,15.2 L90.2,14.6 L93.1,16.7 L97.7,13.9 L97.7,8.2 Z M92.7,13.5 L92.7,7.5 L95.1,9.1 L95.1,15.1 L92.7,13.5 Z M106.5,6 C106.2,6.3 106,6.5 105.6,6.5 C105.2,6.5 104.7,6.3 104.6,6 L104.4,6 L102.9,7.7 L101.3,6 L98.5,8 L98.8,8.4 L99.6,7.9 L100.4,8.7 L100.4,14 L99,14.9 L99.3,15.3 L100.1,14.8 L102.4,16.7 L105.5,14.6 L105.2,14.2 L104.3,14.8 L103.2,13.9 L103.2,8 C103.9,8.7 104.5,8.9 105.1,8.9 C106.3,8.9 107,7.4 107.1,6 L106.5,6 L106.5,6 Z M117.8,14.3 L116.9,14.9 L112.8,8.8 L113,8.4 C113.4,8.7 113.9,9.1 114.9,9.1 C116,9.1 117.1,7.9 117.3,6.1 L116.9,6.1 C116.5,6.6 116.2,6.9 115.6,6.9 C115.2,6.9 114.6,6.6 114.2,6.1 L114,6.1 L110.9,10.9 L115,16.9 L118.2,14.8 L117.8,14.3 Z M112,14.6 L111.3,15.1 L110.5,14.3 L110.5,0.7 L110.1,0.7 L106.7,3.1 L106.7,3.4 C107.2,3.6 107.7,3.7 107.7,4.5 L107.7,14 L106.3,14.9 L106.6,15.3 L107.4,14.8 L109.6,16.7 L112.2,14.9 L112,14.6 L112,14.6 Z M133.8,2.6 C133.8,0.7 131.9,0.1 130.4,0.2 L130.4,0.6 C131.3,0.7 132,0.9 132,1.4 C132,1.8 131.8,2.2 131,2.2 C130.3,2.2 129,1.8 128,1.5 C126.9,1.1 125.6,0.7 124.7,0.7 C122.9,0.7 121.5,1.8 121.5,3.4 C121.5,4.8 122.4,5.4 122.9,5.6 L123.1,5.3 C122.8,5.1 122.6,4.9 122.6,4.4 C122.6,4 123,3.4 123.8,3.4 C124.3,3.4 124.7,3.5 125.3,3.6 C125.9,3.7 126.5,3.9 127.3,4.1 C128.5,4.5 129.6,4.8 130.6,4.9 L130.6,7.5 L129.3,8.6 L129.3,8.9 L130.6,10 L130.6,13.7 C129.9,14.1 129.2,14.2 128.4,14.2 C127.1,14.2 125.8,13.9 124.8,13 L128.5,11.2 L128.5,5.1 L123.9,7.1 C124.4,6.1 125.1,5.2 126.1,4.6 L125.9,4.3 C123.3,5 120.9,7.3 120.9,10.4 C120.9,14 123.9,16.6 127.5,16.6 C131.4,16.6 133.7,13.8 133.7,10.7 L133.3,10.7 C132.7,11.8 132,12.9 131,13.4 L131,9.9 L132.4,8.8 L132.4,8.7 L131,7.6 L131,4.9 C132.4,5.1 133.8,4.3 133.8,2.6 M125.7,12.2 L124.5,12.8 C123.8,12 123.5,10.8 123.5,9.4 C123.5,8.8 123.5,8.2 123.7,7.8 L125.9,6.9 L125.7,12.2 Z M137.1,1.5 L137,1.5 L135.1,3.2 L135.1,3.4 L136.8,5.2 L137,5.2 L138.9,3.5 L138.9,3.3 L137.1,1.5 L137.1,1.5 Z M140.1,14.3 L139.2,14.9 L138.5,14.2 L138.5,7.9 L136.9,6 L134,7.9 L134.3,8.3 L135.1,7.8 L135.8,8.7 L135.8,14.2 L134.5,15.1 L134.8,15.5 L135.5,15 L137.5,16.8 L140.5,14.7 L140.1,14.3 L140.1,14.3 Z M155.9,14.3 L155.1,14.9 L154.3,14.1 L154.3,8.6 L155.2,7.9 L155,7.5 L154.1,8.1 L151.8,6.1 L149.2,8 L147,6.1 L144.3,7.9 L142.7,6.1 L139.8,8.1 L140.1,8.5 L140.9,8 L141.7,8.9 L141.7,14.4 L140.9,15.1 L143.3,17 L145.3,15.2 L144.4,14.4 L144.4,8.5 L145.3,8 L146.7,9.3 L146.7,14.5 L145.9,15.2 L148,17 L150.2,15.2 L149.3,14.4 L149.3,8.6 L150.1,8.1 L151.6,9.4 L151.6,14.5 L150.9,15.2 L153,17.1 L156,15 L155.9,14.3 L155.9,14.3 Z M164,12.9 L161.7,14.7 L159.2,13 L159.2,12.1 L163.7,9.3 L163.7,9.2 L161.6,6 L156.6,8.6 L156.6,14.4 L159.9,16.8 L164.2,13.3 L164,12.9 L164,12.9 Z M159.3,11.6 L159.3,7.7 L159.7,7.6 L161.5,10.2 L159.3,11.6 L159.3,11.6 Z M172.5,11.3 L170.6,9.9 C171.7,8.9 172.3,7.4 172.3,6.6 L172.3,6 L172,6 C171.8,6.5 171.4,6.9 170.8,6.9 C170.1,6.9 169.7,6.5 169.3,6 L165,8.5 L165,11.5 L166.6,12.8 C165.1,14.1 164.6,14.9 164.6,15.8 C164.6,16.7 165.2,17.4 165.9,17.7 L166.1,17.4 C165.9,17.2 165.7,17.1 165.7,16.8 C165.7,16.5 166,16 166.6,16 C167.5,16 168,16.6 168.3,16.9 L172.4,14.4 L172.4,11.3 L172.5,11.3 Z M171.1,8.6 C170.5,9.6 169.1,10.6 168.5,11 L167.6,10.1 L167.6,7.2 C168,8.2 168.8,8.9 170,8.9 C170.3,8.9 170.8,8.8 171.1,8.6 M169.8,15.5 C169.3,14.4 168.4,13.7 167.2,13.7 C166.8,13.7 166.3,13.9 165.8,14.2 C166.2,13.5 167.5,12.4 168.6,11.7 L169.7,12.6 L169.8,15.5 Z M183.1,0.8 C182.8,1.1 182.5,1.4 182.1,1.4 C181.6,1.4 181.2,1.3 180.9,1.2 C180.3,1 179.8,0.8 179.3,0.8 C178.5,0.8 177.1,1.3 176.4,3.4 L176.8,3.6 C177,3.2 177.3,2.7 178,2.7 C178.4,2.7 178.9,2.8 179.2,2.9 C179.5,3 180.1,3.1 180.4,3.1 C181.6,3.1 182.8,1.8 183.5,1 L183.1,0.8 L183.1,0.8 Z M197.2,14.1 L196.4,14.7 L195.4,13.8 L195.4,4.1 L196.5,3.2 L196.3,3 L195.4,3.6 L192.6,1.1 L190.3,2.5 L190.3,1.3 L189.8,1.3 L189.8,2.7 L188.6,3.5 L185.7,1.1 L181.6,3.7 C180.8,4.2 179,5.5 179,7 L179,7.2 C177.4,7.3 176.5,8.1 176.5,9.5 C176.5,10.1 176.7,10.4 176.8,10.7 L177.2,10.7 L177.2,10.5 C177.2,9.9 177.5,9.5 178.4,9.5 L179.1,9.5 L179.1,11 C179.1,12 179,12.8 178.1,13 L178.2,13.4 C180.7,13 181.8,12.2 181.8,10.3 L181.8,5.4 C181.8,4.5 182.4,3.9 183,3.3 L183,11.1 C183,13.1 182.1,13.6 181.2,13.7 C180.3,13.9 179.5,13.8 178.6,14.2 C177.8,14.5 177.1,15.1 177.1,16.4 C177.1,18.1 178.3,18.8 179.6,18.8 L179.6,18.3 C179,18.3 178.5,18.1 178.5,17.5 C178.5,17 178.8,16.7 179.5,16.6 C180.1,16.5 180.7,16.5 181.4,16.3 C182.3,16.1 183.6,15.2 183.6,13.6 L183.6,10.6 C183.8,10.4 184.2,10.2 184.7,10.2 C185.2,10.2 185.6,10.4 185.8,10.6 L185.8,14 L184.5,14.9 L184.7,15.2 L185.4,14.7 L187.8,16.7 L191.3,14.1 L191,13.8 L190.4,14.2 L190.4,10.6 C190.6,10.4 191,10.2 191.5,10.2 C192,10.2 192.4,10.4 192.6,10.6 L192.6,13.9 L191.4,14.8 L191.6,15.1 L192.3,14.6 L194.6,16.6 L197.6,14.1 L197.2,14.1 L197.2,14.1 Z M192.5,7.5 C192.2,7.8 191.8,7.9 191.4,7.9 C190.8,7.9 190.5,7.7 190.3,7.5 L190.3,3.2 L192.5,5 L192.5,7.5 L192.5,7.5 Z M192.5,10.2 C192.2,10 191.9,9.8 191.4,9.8 C190.8,9.8 190.5,10 190.3,10.2 L190.3,8.1 C190.5,8.3 190.9,8.5 191.4,8.5 C191.9,8.5 192.3,8.3 192.5,8.1 L192.5,10.2 L192.5,10.2 Z M189.7,14.5 L188.5,13.6 L188.5,3.9 L189.7,3.1 L189.7,14.5 L189.7,14.5 Z M185.7,7.5 C185.4,7.8 185,7.9 184.6,7.9 C184,7.9 183.7,7.7 183.5,7.5 L183.5,3.3 L185.8,4.9 L185.8,7.5 L185.7,7.5 Z M185.7,10.2 C185.4,10 185.1,9.8 184.6,9.8 C184,9.8 183.7,10 183.5,10.2 L183.5,8.1 C183.7,8.3 184.1,8.5 184.6,8.5 C185.1,8.5 185.5,8.3 185.7,8.1 L185.7,10.2 L185.7,10.2 Z M207.2,14.4 L206.3,15 L205.3,14 L205.3,8.6 L206.3,7.9 L206.1,7.5 L205.2,8.1 L202.1,6.1 L199.8,7.3 C199,7.7 198.5,8.2 198.5,9.1 C198.5,10 199.4,10.5 200.3,11 C199.1,11.7 197.8,12.6 197.8,14 C197.8,15.7 199.4,16.6 200.6,16.8 L202.8,15.2 L204.4,16.8 L207.3,14.8 L207.2,14.4 L207.2,14.4 Z M202.8,11.2 C201.3,10.8 199.1,10.2 199.1,8.9 C199.1,8.1 199.7,7.8 200.1,7.6 L202.7,9.2 L202.7,11.2 L202.8,11.2 Z M202.8,14.9 C202.7,14.9 202.4,15 202.2,15 C201.2,15 200.3,13.8 200.3,12.4 C200.3,11.9 200.4,11.5 200.7,11.1 C201.4,11.4 202.4,11.7 202.8,11.8 L202.8,14.9 L202.8,14.9 Z M216.3,7.4 L215.5,8 L212.7,5.9 L208,8.6 L208,14.6 L211,16.7 L213,15.3 C213,16.3 213.7,17 213.7,17.6 C213.7,18 213.3,18.4 212.9,18.5 C212.2,17.9 211.4,17.4 210.2,17.4 C208.6,17.4 207.6,18.4 207,19.7 L207.3,19.9 C207.8,19.6 208.1,19.3 208.6,19.3 C209.4,19.3 210.2,19.7 211,20.5 C211,20.5 212.7,19.3 213.8,18.5 C214.4,18.1 215,17.7 215.5,17.5 C215.9,17.2 216.3,16.8 216.3,16.4 C216.3,16 216.2,15.6 216,15.4 C215.9,15 215.7,14.6 215.7,13.8 L215.7,8.4 L216.7,7.7 L216.3,7.4 Z M210.5,13.3 L210.5,7.4 L212.9,9 L212.9,14.8 L210.5,13.3 L210.5,13.3 Z M226.3,14.4 L225.4,15 L224.4,14 L224.4,8.6 L225.4,7.9 L225.2,7.5 L224.3,8.1 L221.2,6.1 L219,7.3 C218.2,7.7 217.7,8.2 217.7,9.1 C217.7,10 218.6,10.5 219.5,11 C218.3,11.7 217,12.6 217,14 C217,15.7 218.6,16.6 219.8,16.8 L222,15.2 L223.6,16.8 L226.5,14.8 L226.3,14.4 L226.3,14.4 Z M221.8,11.2 C220.3,10.8 218.1,10.2 218.1,8.9 C218.1,8.1 218.7,7.8 219.1,7.6 L221.7,9.2 L221.7,11.2 L221.8,11.2 Z M221.8,14.9 C221.7,14.9 221.4,15 221.2,15 C220.2,15 219.3,13.8 219.3,12.4 C219.3,11.9 219.4,11.5 219.7,11.1 C220.4,11.4 221.4,11.7 221.8,11.8 L221.8,14.9 L221.8,14.9 Z M234.6,13.7 L234,14.4 C233.1,13.9 231.7,13.6 231.1,13.6 C230.2,13.6 229.2,13.7 228.6,13.9 L228.5,13.9 C228.9,13.3 229.5,12.7 229.9,12.2 L232.1,12.2 L233.8,10.2 L233.5,9.9 L232.9,10.5 L231,10.5 C232.5,9.1 233.7,7.9 234.5,6.4 L234.3,6.1 C233.4,6.6 232.7,6.9 231.5,6.9 C230.3,6.9 228.9,6.4 228.3,6.1 L228.1,6.1 L226.5,9.1 L226.9,9.3 L227.4,8.5 C228,8.8 229,9.1 230,9.1 C230.6,9.1 231.4,9 232,8.8 L230.5,10.4 L228.5,10.4 L226.8,12.4 L227.1,12.7 L227.7,12.1 L229.4,12.1 C227.8,13.8 226.8,14.9 226.4,16.5 L226.6,16.7 C227.4,16 228.4,15.8 229.6,15.8 C230.6,15.8 232,16.3 232.6,16.6 L232.7,16.6 L234.9,13.9 L234.6,13.7 L234.6,13.7 Z M237.8,1.5 L237.6,1.5 L235.7,3.2 L235.7,3.4 L237.4,5.2 L237.6,5.2 L239.5,3.5 L239.5,3.3 L237.8,1.5 Z M240.6,14.3 L239.7,14.9 L239,14.2 L239,7.9 L237.4,6 L234.6,7.9 L234.9,8.3 L235.7,7.8 L236.4,8.7 L236.4,14.2 L235.1,15.1 L235.4,15.5 L236.1,15 L238.1,16.8 L241.1,14.7 L240.6,14.3 L240.6,14.3 Z M251.6,14.3 L250.8,14.9 L249.9,14.1 L249.9,8.6 L250.8,7.9 L250.5,7.5 L249.6,8.1 L247.3,6.1 L245,7.9 L243.4,6.1 L240.5,8.1 L240.8,8.5 L241.6,8 L242.4,8.9 L242.4,14.4 L241.6,15.1 L244,17 L246,15.2 L245.1,14.4 L245.1,8.5 L246,8 L247.5,9.3 L247.5,14.4 L246.8,15.1 L248.9,17 L252,14.9 L251.6,14.3 L251.6,14.3 Z M259.8,12.9 L257.5,14.7 L255,13 L255,12.1 L259.5,9.3 L259.5,9.2 L257.4,6 L252.4,8.6 L252.4,14.4 L255.7,16.8 L260,13.3 L259.8,12.9 L259.8,12.9 Z M255.1,11.6 L255.1,7.7 L255.5,7.6 L257.3,10.2 L255.1,11.6 L255.1,11.6 Z" id="Shape"></path>
            </g>
        </g>
    </g>
</svg>